<?xml version="1.0" encoding="utf-8"?>
<!-- Generator: Adobe Illustrator 22.1.0, SVG Export Plug-In . SVG Version: 6.00 Build 0)  -->
<svg version="1.1" xmlns="http://www.w3.org/2000/svg" xmlns:xlink="http://www.w3.org/1999/xlink" x="0px" y="0px"
	 viewBox="0 0 685 260.8" style="enable-background:new 0 0 685 260.8;" xml:space="preserve">
<style type="text/css">
	.st0{display:none;}
	.st1{fill:#D74C73;stroke:#E72E62;stroke-miterlimit:10;}
	.st2{fill:#D74C73;}
	.st3{fill:none;}
	.st4{font-family:'PerpetuaTitlingMT-Light';}
	.st5{font-size:72px;}
</style>
<g id="Layer_1" class="st0">
	
		<image style="display:inline;overflow:visible;" width="250" height="250" xlink:href="A077DB01.jpg"  transform="matrix(1.548 0 0 1.548 118.1329 -121.6665)">
	</image>
</g>
<g id="Layer_2">
	<g>
		<path class="st1" d="M235.9,55.8c0,0-8.8,10.4-3,18.7c3,3.6,8,6.4,18.2,4.2c6-5,10.6-9.4,16.4-27.3c4-8.8,17-34.3,31.3-40.5
			c6.2-4.2,15.6-10.4,31.3-10.4c15.6,0,36.1,4.2,45.1,25.3H363c0,0-12.2-12.4-20.3-13s-25.3,0.4-35.9,12.4
			c-5,6.4-16.8,21.1-24.5,40.5s-14.8,32.7-35.9,37.7c-12.6,0-25.9,2.6-33.7-19.7c0-7.2-1.2-17,9.6-24.7
			C230.4,55.6,235.9,55.8,235.9,55.8z"/>
		<path class="st1" d="M280,81.7c0,0,10.8-27.9,15.4-31.3s35.5-21.1,58.8-20.9s44.7,2.6,58.4,36.7c1.6,6,7.8,22.1-7.8,50.7
			c-4.4,6.2-25.7,30.1-49.5,38.9c0,0-46.3,21.5-56.8,27.5c-10.4,6-39.5,30.1-29.1,59c0,0,2.8,4.7,9.6,6.5s17.8-4.5,16.8-13
			c-1-8.5-2.9-14.4-5.7-16.6c0,0,11.2-2.5,16.8,18.8c0,0,1.5,25.8-29.8,21.9c0,0-30.1-3.6-21.8-45.7c0,0,1.9-29.7,47.1-56.4
			c0,0,41.2-21.1,48.9-24.3c7.8-3.2,52.1-27,42.8-70.1c-4-8.6-15.5-32.4-59.6-16.8c0,0-17.2,7.8-20.2,10.4
			C311.3,59.5,280,81.7,280,81.7z"/>
		<path class="st1" d="M371.1,46.5c0,0,7.3,1.3,11.6,7.6c0,0,2.1,17.4-4.5,32.5c0,0-11.6,23.1-29.9,34.1c0,0-17.4,13.3-28.4,17.6
			c0,0-19.4,10.6-23.8,13.8c-4.4,3.2-26.9,17.1-31.4,30.6c0,0-2.5-9.5,7.4-24.2c5.5-7.4,17-20.6,24.9-25c7.9-4.4,39.3-28.2,42-37.7
			c2.7-9.5,0.7-22.3-10.2-14.8c0,0-3.2,5.5-1.1,10.6c0,0-10,0.7-7.6-14.2c0,0,4-14.8,23.5-7.8c0,0,5.6,2.1,7.6,9.5
			c0,0,0.9,12,0.8,13.9c0,0,15.5-9.1,18.4-28.5L371.1,46.5z"/>
		<path class="st1" d="M250.3,55.4c0,0,8.7-4.9,6-17.9c0,0-1.3-12-18.4-15c0,0-22.6-3.2-36.8,4.1c-14.2,7.4-25.8,10.4-37.2,45.2
			c0,0-3.7,24.1,8.4,47.9c3,5.2,13.4,25.3,29.3,38.1c0,0,18.1,16.1,20.1,16.8s15.5,15.2,19.4,22.9c0,0,5.3,11.6-2.1,29
			c0,0,8.3-0.8,11.2-19.4c0,0,1.6-17.2-1.3-23.4s-18.2-20.5-18.2-20.5s-33.7-30.9-39.7-54.3c0,0-6.8-23.5,1.2-44.9
			c0,0,7.8-21.1,29.3-27.1C221.4,37,252.8,28.6,250.3,55.4z"/>
		<path class="st2" d="M232.1,199.2c0,0-15.5-14.7-19.9-17.2c-4.4-2.5-56.6-34.6-69-54.3c0,0-23.5-26.9-20.9-69.2
			c0,0,5.6-35.5,39.1-51.1c0,0,42.5-19.3,67.2,9.2l0.3,1.2L213.2,18c0,0-5.3-3.1-10.9-2.9c-5.6,0.2-30.4,0.6-45.2,21.1
			c0,0-14.9,17.6-13.1,40.3s14,48.5,37.7,71.6s34.8,30.5,34.8,30.5S232.2,188.3,232.1,199.2z"/>
	</g>
	<rect y="127.3" class="st3" width="685" height="109"/>
	<text transform="matrix(1 0 0 1 34.9707 179.1011)" class="st4 st5">Couples Resort</text>
</g>
</svg>
